Coordinates
version=1
nRows=32
nColumns=22
inDegrees=yes

Units are S.I. units (second, meters, Newtons, ...)
If the header above contains a line with 'inDegrees', this indicates whether rotational values are in degrees (yes) or radians (no).

endheader
time	pelvis_tilt	pelvis_list	pelvis_rotation	pelvis_tx	pelvis_ty	pelvis_tz	hip_flexion_r	hip_adduction_r	hip_rotation_r	knee_angle_r	ankle_angle_r	subtalar_angle_r	hip_flexion_l	hip_adduction_l	hip_rotation_l	knee_angle_l	ankle_angle_l	subtalar_angle_l	lumbar_extension	lumbar_bending	lumbar_rotation
      2.87000000	     -1.93938698	      8.58736379	    -42.75342507	     -0.03074788	      0.96874070	      0.11233582	     33.77525707	     -5.63051348	     -1.49569755	    -72.03640939	      7.05623135	     -8.88263824	     23.11208591	      4.20900728	      2.79712889	    -27.04305888	     17.26664858	      2.48173133	     -3.55450204	     -2.77915720	      1.98199531
      2.88000000	     -1.90709463	      8.50550984	    -43.09011206	     -0.02506146	      0.96946711	      0.11756136	     34.63934114	     -5.60190865	     -2.04069309	    -70.81220126	      7.89286940	     -8.44002716	     22.38271471	      4.08444517	      2.49955055	    -26.80525938	     17.71491169	      2.35198070	     -3.75168370	     -2.69372247	      1.43730070
      2.89000000	     -1.86281411	      8.43706702	    -43.43305112	     -0.01936635	      0.97007285	      0.12284231	     35.43184729	     -5.63127662	     -2.62513336	    -69.40310117	      8.71361716	     -7.98816530	     21.65199286	      3.98216507	      2.18955306	    -26.57031767	     18.16021901	      2.23992570	     -3.93326711	     -2.62006123	      0.92109932
      2.90000000	     -1.79842908	      8.37971795	    -43.78943256	     -0.01366867	      0.97057355	      0.12818845	     36.14705589	     -5.71698414	     -3.23762190	    -67.82473782	      9.50255276	     -7.55205065	     20.91470404	      3.90390143	      1.85699768	    -26.34224294	     18.61025512	      2.13378570	     -4.11031699	     -2.56272566	      0.44137674
      2.91000000	     -1.71983943	      8.33366354	    -44.16869620	     -0.00797876	      0.97096296	      0.13362136	     36.79208103	     -5.84779488	     -3.87422147	    -66.09335426	     10.25199036	     -7.20535282	     20.17546826	      3.84453323	      1.50442372	    -26.12353375	     19.06490453	      2.03504222	     -4.27601175	     -2.51879705	      0.01497882
      2.92000000	     -1.63111169	      8.29197044	    -44.57819728	     -0.00231567	      0.97124857	      0.13916961	     37.36697092	     -6.00271940	     -4.52922510	    -64.22330879	     10.94080582	     -6.97667652	     19.43295297	      3.79480369	      1.13695209	    -25.91696696	     19.51801436	      1.94142280	     -4.43022301	     -2.48278033	     -0.34960333
      2.93000000	     -1.52961729	      8.24770093	    -45.02208268	      0.00330845	      0.97143940	      0.14485826	     37.86621680	     -6.17157153	     -5.20507231	    -62.23198994	     11.56121895	     -6.85571673	     18.68087002	      3.74838066	      0.74317601	    -25.72410686	     19.97962129	      1.84424788	     -4.58350523	     -2.45348641	     -0.63931868
      2.94000000	     -1.42019739	      8.20167510	    -45.50398892	      0.00885048	      0.97153899	      0.15069649	     38.29825737	     -6.32643369	     -5.87200831	    -60.12819405	     12.09206288	     -6.84307061	     17.92193449	      3.70147775	      0.32560931	    -25.54011367	     20.44933570	      1.74080949	     -4.73579348	     -2.43180398	     -0.87636977
      2.95000000	     -1.31409065	      8.15035921	    -46.02092023	      0.01429897	      0.97153024	      0.15670384	     38.66980347	     -6.45542521	     -6.54859340	    -57.92895270	     12.53739205	     -6.92173858	     17.16822415	      3.64283350	     -0.11384678	    -25.37971542	     20.92818811	      1.63249701	     -4.87715928	     -2.41054310	     -1.03623247
      2.96000000	     -1.19380470	      8.08437793	    -46.57133862	      0.01965724	      0.97145887	      0.16287000	     38.95988046	     -6.55573967	     -7.22452572	    -55.64047623	     12.89286539	     -7.09023181	     16.38932659	      3.58439042	     -0.56154091	    -25.22201009	     21.41486982	      1.50966406	     -5.03594994	     -2.39410499	     -1.12863130
      2.97000000	     -1.13048621	      8.02441312	    -47.14696027	      0.02485261	      0.97120135	      0.16918523	     39.24250002	     -6.57226580	     -7.89296143	    -53.27827024	     13.13508145	     -7.21704505	     15.68591192	      3.47355998	     -1.06639150	    -25.12373020	     21.91495326	      1.39525979	     -5.13909674	     -2.34342571	     -1.16212165
      2.98000000	     -1.04672044	      7.95331208	    -47.74009369	      0.02993572	      0.97089571	      0.17565705	     39.44493746	     -6.55315929	     -8.54158768	    -50.85216507	     13.29711229	     -7.36990328	     14.94158754	      3.37761148	     -1.54015492	    -25.00116090	     22.41535228	      1.27360112	     -5.26707675	     -2.31197449	     -1.15291001
      2.99000000	     -0.98374622	      7.88362050	    -48.34060227	      0.03488227	      0.97045701	      0.18225622	     39.61367422	     -6.48152020	     -9.19257255	    -48.38324574	     13.36469617	     -7.46278951	     14.23175601	      3.26208104	     -2.05164826	    -24.91784666	     22.91953134	      1.15274516	     -5.37673043	     -2.27462195	     -1.09967003
      3.00000000	     -0.95315744	      7.82440176	    -48.94365237	      0.03968063	      0.96987792	      0.18897842	     39.76407211	     -6.34132167	     -9.81460904	    -45.87748104	     13.33293433	     -7.45618464	     13.56085588	      3.12672600	     -2.57254780	    -24.85415906	     23.42117841	      1.04190461	     -5.45321914	     -2.22725993	     -1.02319481
      3.01000000	     -0.93339671	      7.77487976	    -49.53945266	      0.04436483	      0.96918081	      0.19580500	     39.88454142	     -6.15942081	    -10.41278192	    -43.35715360	     13.23500430	     -7.36026531	     12.90916411	      2.99156915	     -3.10134467	    -24.80212545	     23.92372305	      0.94125482	     -5.51441238	     -2.18384029	     -0.93489436
      3.02000000	     -0.92932562	      7.74271409	    -50.11996290	      0.04895402	      0.96835988	      0.20272446	     39.98753166	     -5.94349034	    -10.98806532	    -40.83799678	     13.07625076	     -7.16963185	     12.28332845	      2.85958784	     -3.62860237	    -24.75666363	     24.41138870	      0.85605115	     -5.54847109	     -2.14401785	     -0.83639912
      3.03000000	     -0.92480797	      7.72958107	    -50.68502064	      0.05347009	      0.96743439	      0.20973558	     40.06969525	     -5.70816711	    -11.52259015	    -38.33910553	     12.87419548	     -6.89041659	     11.66609051	      2.74585914	     -4.15147116	    -24.70463150	     24.88738420	      0.79048290	     -5.56506158	     -2.11986448	     -0.74534585
      3.04000000	     -0.91610473	      7.74062127	    -51.23039996	      0.05795229	      0.96640816	      0.21684248	     40.13683099	     -5.47138829	    -12.03063149	    -35.88116198	     12.65797791	     -6.54089261	     11.05420324	      2.65808248	     -4.67181750	    -24.63780605	     25.33688370	      0.74778581	     -5.55730308	     -2.11704898	     -0.66003046
      3.05000000	     -0.89165953	      7.77392528	    -51.75923997	      0.06242509	      0.96529957	      0.22406070	     40.18618390	     -5.24506554	    -12.50636572	    -33.48557700	     12.44847376	     -6.14084251	     10.43185308	      2.60390560	     -5.18811201	    -24.54634747	     25.75740040	      0.73100953	     -5.53170479	     -2.14046796	     -0.58148404
      3.06000000	     -0.83798905	      7.82392954	    -52.27400021	      0.06692231	      0.96413595	      0.23140820	     40.20968243	     -5.04367646	    -12.95873625	    -31.17478504	     12.26914381	     -5.70520831	      9.77817982	      2.59156165	     -5.70366093	    -24.41792070	     26.14216087	      0.74568156	     -5.49866343	     -2.19617071	     -0.51387967
      3.07000000	     -0.75028005	      7.88824901	    -52.77629456	      0.07147172	      0.96293039	      0.23890090	     40.20748314	     -4.87546301	    -13.39582529	    -28.96922545	     12.12970387	     -5.25543330	      9.08338694	      2.62488609	     -6.21618286	    -24.24557611	     26.48647929	      0.79631155	     -5.45908551	     -2.28483923	     -0.45894755
      3.08000000	     -0.63314121	      7.96173715	    -53.26623242	      0.07608783	      0.96168330	      0.24655966	     40.18211925	     -4.73907998	    -13.83133403	    -26.89217565	     12.05519851	     -4.82939140	      8.34749475	      2.69595797	     -6.72221449	    -24.03298076	     26.79387336	      0.88004852	     -5.41064101	     -2.39801144	     -0.40829335
      3.09000000	     -0.49115950	      8.04255385	    -53.74413306	      0.08076188	      0.96038976	      0.25439340	     40.14240682	     -4.63252057	    -14.27302424	    -24.96848367	     12.02420668	     -4.45152164	      7.58052857	      2.79436467	     -7.24040039	    -23.79569397	     27.06519075	      0.98967244	     -5.35214762	     -2.53055769	     -0.37560068
      3.10000000	     -0.32486697	      8.11622229	    -54.20521957	      0.08553107	      0.95908614	      0.26241075	     40.07067291	     -4.54921792	    -14.70653785	    -23.20932811	     12.04108272	     -4.11723095	      6.76306195	      2.92196767	     -7.71482177	    -23.52214098	     27.29295478	      1.14191761	     -5.29157816	     -2.66711097	     -0.35002805
      3.11000000	     -0.14666554	      8.18236209	    -54.64207012	      0.09037146	      0.95776104	      0.27061825	     39.97694940	     -4.48483392	    -15.14097512	    -21.63778148	     12.10960038	     -3.84831271	      5.91315038	      3.06495851	     -8.12939762	    -23.23115425	     27.47867603	      1.33496324	     -5.22513329	     -2.80266870	     -0.32709476
      3.12000000	      0.05137430	      8.22103396	    -55.04163380	      0.09527580	      0.95644247	      0.27899471	     39.85523733	     -4.45211190	    -15.60466499	    -20.30712069	     12.22077285	     -3.64550753	      5.02572371	      3.20710003	     -8.52916639	    -22.94948038	     27.63157745	      1.59116101	     -5.18700059	     -2.92789123	     -0.37372588
      3.13000000	      0.22060046	      8.25904823	    -55.40797290	      0.10021969	      0.95506499	      0.28755380	     39.74596109	     -4.41203051	    -16.04002677	    -19.20813020	     12.31069651	     -3.55016844	      4.16492218	      3.32668951	     -8.86378882	    -22.70436335	     27.75123837	      1.87340932	     -5.11243334	     -3.01885771	     -0.42879118
      3.14000000	      0.36442055	      8.28009256	    -55.73002220	      0.10519557	      0.95366558	      0.29627734	     39.63733089	     -4.36988492	    -16.45073094	    -18.37025989	     12.36620260	     -3.56934126	      3.32468156	      3.41272147	     -9.13614449	    -22.51112434	     27.84107023	      2.19889404	     -5.02576001	     -3.06747130	     -0.51941376
      3.15000000	      0.46720263	      8.29006257	    -56.00858989	      0.11018411	      0.95223681	      0.30516011	     39.54568537	     -4.31601210	    -16.81902539	    -17.80612394	     12.34799065	     -3.71766426	      2.52934522	      3.45149523	     -9.34216016	    -22.38978025	     27.90015344	      2.55931937	     -4.91602502	     -3.06319488	     -0.64296256
      3.16000000	      0.52116676	      8.28871608	    -56.23907182	      0.11517435	      0.95079012	      0.31419676	     39.47753639	     -4.24965477	    -17.14350189	    -17.52646144	     12.22228800	     -4.00335826	      1.79222250	      3.43433880	     -9.47463273	    -22.35634788	     27.92623369	      2.95269279	     -4.78056496	     -3.00014448	     -0.79944776
      3.17000000	      0.52000594	      8.27692308	    -56.42688833	      0.12015027	      0.94933552	      0.32340533	     39.44044586	     -4.16329833	    -17.41795811	    -17.53165755	     11.96808687	     -4.43051545	      1.11997631	      3.35284869	     -9.53955218	    -22.41761832	     27.92412503	      3.37740738	     -4.61407141	     -2.87692955	     -0.98298839
      3.18000000	      0.46825005	      8.24063596	    -56.58540191	      0.12510196	      0.94790544	      0.33279046	     39.43471837	     -4.05358473	    -17.65132484	    -17.83725903	     11.56986853	     -5.02203243	      0.50135272	      3.20243682	     -9.54569682	    -22.58138588	     27.88899722	      3.85211100	     -4.43574963	     -2.68761718	     -1.17248790
